<mxfile host="Electron" modified="2024-05-04T14:00:45.375Z" agent="Mozilla/5.0 (Windows NT 10.0; Win64; x64) AppleWebKit/537.36 (KHTML, like Gecko) draw.io/24.2.5 Chrome/120.0.6099.109 Electron/28.1.0 Safari/537.36" etag="uOLUDoNM2pX2ncruyLH1" version="24.2.5" type="device">
  <diagram name="Page-1" id="D5eaZ55jSwbf1sR5izok">
    <mxGraphModel dx="2924" dy="1204" grid="1" gridSize="10" guides="1" tooltips="1" connect="1" arrows="1" fold="1" page="1" pageScale="1" pageWidth="850" pageHeight="1100" math="0" shadow="0">
      <root>
        <mxCell id="0" />
        <mxCell id="1" parent="0" />
        <mxCell id="7CXUjaQquOiZPHZPoIj2-1" value="&lt;u&gt;id&lt;/u&gt;" style="rounded=0;whiteSpace=wrap;html=1;" vertex="1" parent="1">
          <mxGeometry x="-580" y="70" width="120" height="60" as="geometry" />
        </mxCell>
        <mxCell id="7CXUjaQquOiZPHZPoIj2-2" value="&lt;font style=&quot;font-size: 18px;&quot;&gt;Patient&lt;/font&gt;" style="text;html=1;align=center;verticalAlign=middle;resizable=0;points=[];autosize=1;strokeColor=none;fillColor=none;" vertex="1" parent="1">
          <mxGeometry x="-580" y="30" width="80" height="40" as="geometry" />
        </mxCell>
        <mxCell id="7CXUjaQquOiZPHZPoIj2-3" value="name" style="rounded=0;whiteSpace=wrap;html=1;" vertex="1" parent="1">
          <mxGeometry x="-460" y="70" width="120" height="60" as="geometry" />
        </mxCell>
        <mxCell id="7CXUjaQquOiZPHZPoIj2-4" value="DOB" style="rounded=0;whiteSpace=wrap;html=1;" vertex="1" parent="1">
          <mxGeometry x="-340" y="70" width="120" height="60" as="geometry" />
        </mxCell>
        <mxCell id="7CXUjaQquOiZPHZPoIj2-5" value="&lt;u&gt;id&lt;/u&gt;" style="rounded=0;whiteSpace=wrap;html=1;" vertex="1" parent="1">
          <mxGeometry x="240" y="60" width="120" height="60" as="geometry" />
        </mxCell>
        <mxCell id="7CXUjaQquOiZPHZPoIj2-6" value="&lt;font style=&quot;font-size: 18px;&quot;&gt;Consultant&lt;/font&gt;" style="text;html=1;align=center;verticalAlign=middle;resizable=0;points=[];autosize=1;strokeColor=none;fillColor=none;" vertex="1" parent="1">
          <mxGeometry x="240" y="20" width="110" height="40" as="geometry" />
        </mxCell>
        <mxCell id="7CXUjaQquOiZPHZPoIj2-7" value="name" style="rounded=0;whiteSpace=wrap;html=1;" vertex="1" parent="1">
          <mxGeometry x="360" y="60" width="120" height="60" as="geometry" />
        </mxCell>
        <mxCell id="7CXUjaQquOiZPHZPoIj2-9" value="&lt;u&gt;id&lt;/u&gt;" style="rounded=0;whiteSpace=wrap;html=1;" vertex="1" parent="1">
          <mxGeometry x="540" y="60" width="120" height="60" as="geometry" />
        </mxCell>
        <mxCell id="7CXUjaQquOiZPHZPoIj2-10" value="&lt;font style=&quot;font-size: 18px;&quot;&gt;Ward&lt;/font&gt;" style="text;html=1;align=center;verticalAlign=middle;resizable=0;points=[];autosize=1;strokeColor=none;fillColor=none;" vertex="1" parent="1">
          <mxGeometry x="560" y="20" width="70" height="40" as="geometry" />
        </mxCell>
        <mxCell id="7CXUjaQquOiZPHZPoIj2-11" value="name" style="rounded=0;whiteSpace=wrap;html=1;" vertex="1" parent="1">
          <mxGeometry x="660" y="60" width="120" height="60" as="geometry" />
        </mxCell>
        <mxCell id="7CXUjaQquOiZPHZPoIj2-12" value="&lt;u&gt;number&lt;/u&gt;" style="rounded=0;whiteSpace=wrap;html=1;" vertex="1" parent="1">
          <mxGeometry x="960" y="60" width="120" height="60" as="geometry" />
        </mxCell>
        <mxCell id="7CXUjaQquOiZPHZPoIj2-13" value="&lt;font style=&quot;font-size: 18px;&quot;&gt;Nurse&lt;/font&gt;" style="text;html=1;align=center;verticalAlign=middle;resizable=0;points=[];autosize=1;strokeColor=none;fillColor=none;" vertex="1" parent="1">
          <mxGeometry x="965" y="20" width="70" height="40" as="geometry" />
        </mxCell>
        <mxCell id="7CXUjaQquOiZPHZPoIj2-14" value="name" style="rounded=0;whiteSpace=wrap;html=1;" vertex="1" parent="1">
          <mxGeometry x="1080" y="60" width="120" height="60" as="geometry" />
        </mxCell>
        <mxCell id="7CXUjaQquOiZPHZPoIj2-15" value="address" style="rounded=0;whiteSpace=wrap;html=1;" vertex="1" parent="1">
          <mxGeometry x="1200" y="60" width="120" height="60" as="geometry" />
        </mxCell>
        <mxCell id="7CXUjaQquOiZPHZPoIj2-17" style="edgeStyle=orthogonalEdgeStyle;rounded=0;orthogonalLoop=1;jettySize=auto;html=1;entryX=0.325;entryY=1.033;entryDx=0;entryDy=0;entryPerimeter=0;" edge="1" parent="1" source="7CXUjaQquOiZPHZPoIj2-16" target="7CXUjaQquOiZPHZPoIj2-12">
          <mxGeometry relative="1" as="geometry">
            <mxPoint x="1000" y="230" as="targetPoint" />
            <Array as="points">
              <mxPoint x="840" y="170" />
              <mxPoint x="841" y="170" />
              <mxPoint x="841" y="230" />
              <mxPoint x="999" y="230" />
            </Array>
          </mxGeometry>
        </mxCell>
        <mxCell id="7CXUjaQquOiZPHZPoIj2-16" value="nurseNumber" style="rounded=0;whiteSpace=wrap;html=1;" vertex="1" parent="1">
          <mxGeometry x="780" y="60" width="120" height="60" as="geometry" />
        </mxCell>
        <mxCell id="7CXUjaQquOiZPHZPoIj2-18" value="" style="endArrow=none;dashed=1;html=1;dashPattern=1 3;strokeWidth=2;rounded=0;" edge="1" parent="1">
          <mxGeometry width="50" height="50" relative="1" as="geometry">
            <mxPoint x="810" y="100" as="sourcePoint" />
            <mxPoint x="870" y="100" as="targetPoint" />
          </mxGeometry>
        </mxCell>
        <mxCell id="7CXUjaQquOiZPHZPoIj2-25" style="edgeStyle=orthogonalEdgeStyle;rounded=0;orthogonalLoop=1;jettySize=auto;html=1;exitX=0.5;exitY=1;exitDx=0;exitDy=0;entryX=0.5;entryY=1;entryDx=0;entryDy=0;" edge="1" parent="1" source="7CXUjaQquOiZPHZPoIj2-19" target="7CXUjaQquOiZPHZPoIj2-5">
          <mxGeometry relative="1" as="geometry">
            <mxPoint x="300" y="200" as="targetPoint" />
            <Array as="points">
              <mxPoint x="-160" y="200" />
              <mxPoint x="300" y="200" />
            </Array>
          </mxGeometry>
        </mxCell>
        <mxCell id="7CXUjaQquOiZPHZPoIj2-19" value="ConsultantID" style="rounded=0;whiteSpace=wrap;html=1;" vertex="1" parent="1">
          <mxGeometry x="-220" y="70" width="120" height="60" as="geometry" />
        </mxCell>
        <mxCell id="7CXUjaQquOiZPHZPoIj2-20" value="" style="endArrow=none;dashed=1;html=1;dashPattern=1 3;strokeWidth=2;rounded=0;" edge="1" parent="1">
          <mxGeometry width="50" height="50" relative="1" as="geometry">
            <mxPoint x="-195" y="110" as="sourcePoint" />
            <mxPoint x="-125" y="110" as="targetPoint" />
          </mxGeometry>
        </mxCell>
        <mxCell id="7CXUjaQquOiZPHZPoIj2-24" style="edgeStyle=orthogonalEdgeStyle;rounded=0;orthogonalLoop=1;jettySize=auto;html=1;entryX=0.5;entryY=1;entryDx=0;entryDy=0;" edge="1" parent="1" source="7CXUjaQquOiZPHZPoIj2-21" target="7CXUjaQquOiZPHZPoIj2-9">
          <mxGeometry relative="1" as="geometry">
            <mxPoint x="600" y="280" as="targetPoint" />
            <Array as="points">
              <mxPoint x="1380" y="280" />
              <mxPoint x="600" y="280" />
            </Array>
          </mxGeometry>
        </mxCell>
        <mxCell id="7CXUjaQquOiZPHZPoIj2-21" value="wardID" style="rounded=0;whiteSpace=wrap;html=1;" vertex="1" parent="1">
          <mxGeometry x="1320" y="60" width="120" height="60" as="geometry" />
        </mxCell>
        <mxCell id="7CXUjaQquOiZPHZPoIj2-22" value="" style="endArrow=none;dashed=1;html=1;dashPattern=1 3;strokeWidth=2;rounded=0;" edge="1" parent="1">
          <mxGeometry width="50" height="50" relative="1" as="geometry">
            <mxPoint x="1350" y="99.5" as="sourcePoint" />
            <mxPoint x="1410" y="99.5" as="targetPoint" />
          </mxGeometry>
        </mxCell>
        <mxCell id="7CXUjaQquOiZPHZPoIj2-28" style="edgeStyle=orthogonalEdgeStyle;rounded=0;orthogonalLoop=1;jettySize=auto;html=1;exitX=0.5;exitY=1;exitDx=0;exitDy=0;entryX=0.817;entryY=1.033;entryDx=0;entryDy=0;entryPerimeter=0;" edge="1" parent="1" source="7CXUjaQquOiZPHZPoIj2-26" target="7CXUjaQquOiZPHZPoIj2-9">
          <mxGeometry relative="1" as="geometry">
            <mxPoint x="640" y="240" as="targetPoint" />
            <Array as="points">
              <mxPoint x="-40" y="240" />
              <mxPoint x="638" y="240" />
            </Array>
          </mxGeometry>
        </mxCell>
        <mxCell id="7CXUjaQquOiZPHZPoIj2-26" value="wardID" style="rounded=0;whiteSpace=wrap;html=1;" vertex="1" parent="1">
          <mxGeometry x="-100" y="70" width="120" height="60" as="geometry" />
        </mxCell>
        <mxCell id="7CXUjaQquOiZPHZPoIj2-27" value="" style="endArrow=none;dashed=1;html=1;dashPattern=1 3;strokeWidth=2;rounded=0;" edge="1" parent="1">
          <mxGeometry width="50" height="50" relative="1" as="geometry">
            <mxPoint x="-70" y="110" as="sourcePoint" />
            <mxPoint x="-10" y="110" as="targetPoint" />
          </mxGeometry>
        </mxCell>
        <mxCell id="7CXUjaQquOiZPHZPoIj2-37" value="date" style="rounded=0;whiteSpace=wrap;html=1;" vertex="1" parent="1">
          <mxGeometry x="1020" y="500" width="120" height="60" as="geometry" />
        </mxCell>
        <mxCell id="7CXUjaQquOiZPHZPoIj2-38" value="time" style="rounded=0;whiteSpace=wrap;html=1;" vertex="1" parent="1">
          <mxGeometry x="1140" y="500" width="120" height="60" as="geometry" />
        </mxCell>
        <mxCell id="7CXUjaQquOiZPHZPoIj2-41" value="&lt;u&gt;code&lt;/u&gt;" style="rounded=0;whiteSpace=wrap;html=1;" vertex="1" parent="1">
          <mxGeometry x="-520" y="480" width="120" height="60" as="geometry" />
        </mxCell>
        <mxCell id="7CXUjaQquOiZPHZPoIj2-42" value="&lt;span style=&quot;font-size: 18px;&quot;&gt;Drug&lt;/span&gt;" style="text;html=1;align=center;verticalAlign=middle;resizable=0;points=[];autosize=1;strokeColor=none;fillColor=none;" vertex="1" parent="1">
          <mxGeometry x="-495" y="440" width="60" height="40" as="geometry" />
        </mxCell>
        <mxCell id="7CXUjaQquOiZPHZPoIj2-43" value="dosage" style="rounded=0;whiteSpace=wrap;html=1;" vertex="1" parent="1">
          <mxGeometry x="-400" y="480" width="120" height="60" as="geometry" />
        </mxCell>
        <mxCell id="7CXUjaQquOiZPHZPoIj2-48" style="edgeStyle=orthogonalEdgeStyle;rounded=0;orthogonalLoop=1;jettySize=auto;html=1;entryX=0.308;entryY=1.017;entryDx=0;entryDy=0;entryPerimeter=0;" edge="1" parent="1" source="7CXUjaQquOiZPHZPoIj2-44" target="7CXUjaQquOiZPHZPoIj2-41">
          <mxGeometry relative="1" as="geometry">
            <mxPoint x="-480" y="600" as="targetPoint" />
            <Array as="points">
              <mxPoint x="-150" y="570" />
              <mxPoint x="-159" y="570" />
              <mxPoint x="-159" y="600" />
              <mxPoint x="-483" y="600" />
            </Array>
          </mxGeometry>
        </mxCell>
        <mxCell id="7CXUjaQquOiZPHZPoIj2-44" value="drugCode" style="rounded=0;whiteSpace=wrap;html=1;" vertex="1" parent="1">
          <mxGeometry x="-210" y="480" width="120" height="60" as="geometry" />
        </mxCell>
        <mxCell id="7CXUjaQquOiZPHZPoIj2-45" value="&lt;span style=&quot;font-size: 18px;&quot;&gt;Drug_Brand&lt;/span&gt;" style="text;html=1;align=center;verticalAlign=middle;resizable=0;points=[];autosize=1;strokeColor=none;fillColor=none;" vertex="1" parent="1">
          <mxGeometry x="-215" y="440" width="120" height="40" as="geometry" />
        </mxCell>
        <mxCell id="7CXUjaQquOiZPHZPoIj2-46" value="Brands" style="rounded=0;whiteSpace=wrap;html=1;" vertex="1" parent="1">
          <mxGeometry x="-90" y="480" width="120" height="60" as="geometry" />
        </mxCell>
        <mxCell id="7CXUjaQquOiZPHZPoIj2-47" value="" style="endArrow=none;dashed=1;html=1;dashPattern=1 3;strokeWidth=2;rounded=0;" edge="1" parent="1">
          <mxGeometry width="50" height="50" relative="1" as="geometry">
            <mxPoint x="-180" y="520" as="sourcePoint" />
            <mxPoint x="-120" y="520" as="targetPoint" />
          </mxGeometry>
        </mxCell>
        <mxCell id="7CXUjaQquOiZPHZPoIj2-49" value="" style="endArrow=none;html=1;rounded=0;entryX=0.833;entryY=0.833;entryDx=0;entryDy=0;entryPerimeter=0;" edge="1" parent="1" target="7CXUjaQquOiZPHZPoIj2-46">
          <mxGeometry width="50" height="50" relative="1" as="geometry">
            <mxPoint x="-185" y="530" as="sourcePoint" />
            <mxPoint x="-115" y="530" as="targetPoint" />
          </mxGeometry>
        </mxCell>
        <mxCell id="7CXUjaQquOiZPHZPoIj2-56" style="edgeStyle=orthogonalEdgeStyle;rounded=0;orthogonalLoop=1;jettySize=auto;html=1;entryX=0;entryY=0.5;entryDx=0;entryDy=0;" edge="1" parent="1" source="7CXUjaQquOiZPHZPoIj2-50" target="7CXUjaQquOiZPHZPoIj2-5">
          <mxGeometry relative="1" as="geometry">
            <mxPoint x="110" y="100" as="targetPoint" />
            <Array as="points">
              <mxPoint x="110" y="510" />
              <mxPoint x="110" y="90" />
            </Array>
          </mxGeometry>
        </mxCell>
        <mxCell id="7CXUjaQquOiZPHZPoIj2-50" value="ConsultantID" style="rounded=0;whiteSpace=wrap;html=1;" vertex="1" parent="1">
          <mxGeometry x="180" y="480" width="120" height="60" as="geometry" />
        </mxCell>
        <mxCell id="7CXUjaQquOiZPHZPoIj2-57" style="edgeStyle=orthogonalEdgeStyle;rounded=0;orthogonalLoop=1;jettySize=auto;html=1;exitX=1;exitY=0.5;exitDx=0;exitDy=0;entryX=0.667;entryY=1;entryDx=0;entryDy=0;entryPerimeter=0;" edge="1" parent="1" source="7CXUjaQquOiZPHZPoIj2-51" target="7CXUjaQquOiZPHZPoIj2-1">
          <mxGeometry relative="1" as="geometry">
            <mxPoint x="-500" y="280" as="targetPoint" />
            <Array as="points">
              <mxPoint x="460" y="510" />
              <mxPoint x="460" y="280" />
              <mxPoint x="-500" y="280" />
            </Array>
          </mxGeometry>
        </mxCell>
        <mxCell id="7CXUjaQquOiZPHZPoIj2-51" value="patientID" style="rounded=0;whiteSpace=wrap;html=1;" vertex="1" parent="1">
          <mxGeometry x="300" y="480" width="120" height="60" as="geometry" />
        </mxCell>
        <mxCell id="7CXUjaQquOiZPHZPoIj2-52" value="" style="endArrow=none;dashed=1;html=1;dashPattern=1 3;strokeWidth=2;rounded=0;" edge="1" parent="1">
          <mxGeometry width="50" height="50" relative="1" as="geometry">
            <mxPoint x="205" y="520" as="sourcePoint" />
            <mxPoint x="275" y="520" as="targetPoint" />
          </mxGeometry>
        </mxCell>
        <mxCell id="7CXUjaQquOiZPHZPoIj2-53" value="" style="endArrow=none;dashed=1;html=1;dashPattern=1 3;strokeWidth=2;rounded=0;" edge="1" parent="1">
          <mxGeometry width="50" height="50" relative="1" as="geometry">
            <mxPoint x="330" y="520" as="sourcePoint" />
            <mxPoint x="390" y="520" as="targetPoint" />
          </mxGeometry>
        </mxCell>
        <mxCell id="7CXUjaQquOiZPHZPoIj2-54" value="&lt;font style=&quot;font-size: 18px;&quot;&gt;consultant_patient&lt;/font&gt;" style="text;html=1;align=center;verticalAlign=middle;resizable=0;points=[];autosize=1;strokeColor=none;fillColor=none;" vertex="1" parent="1">
          <mxGeometry x="185" y="430" width="170" height="40" as="geometry" />
        </mxCell>
        <mxCell id="7CXUjaQquOiZPHZPoIj2-55" value="" style="endArrow=none;html=1;rounded=0;" edge="1" parent="1">
          <mxGeometry width="50" height="50" relative="1" as="geometry">
            <mxPoint x="192.5" y="530" as="sourcePoint" />
            <mxPoint x="407.5" y="530" as="targetPoint" />
          </mxGeometry>
        </mxCell>
        <mxCell id="7CXUjaQquOiZPHZPoIj2-73" style="edgeStyle=orthogonalEdgeStyle;rounded=0;orthogonalLoop=1;jettySize=auto;html=1;entryX=0.167;entryY=1.067;entryDx=0;entryDy=0;entryPerimeter=0;" edge="1" parent="1" source="7CXUjaQquOiZPHZPoIj2-58" target="7CXUjaQquOiZPHZPoIj2-1">
          <mxGeometry relative="1" as="geometry">
            <mxPoint x="-560" y="680" as="targetPoint" />
            <Array as="points">
              <mxPoint x="600" y="680" />
              <mxPoint x="-560" y="680" />
            </Array>
          </mxGeometry>
        </mxCell>
        <mxCell id="7CXUjaQquOiZPHZPoIj2-58" value="patientID" style="rounded=0;whiteSpace=wrap;html=1;" vertex="1" parent="1">
          <mxGeometry x="540" y="500" width="120" height="60" as="geometry" />
        </mxCell>
        <mxCell id="7CXUjaQquOiZPHZPoIj2-59" value="" style="endArrow=none;dashed=1;html=1;dashPattern=1 3;strokeWidth=2;rounded=0;" edge="1" parent="1">
          <mxGeometry width="50" height="50" relative="1" as="geometry">
            <mxPoint x="565" y="540" as="sourcePoint" />
            <mxPoint x="635" y="540" as="targetPoint" />
          </mxGeometry>
        </mxCell>
        <mxCell id="7CXUjaQquOiZPHZPoIj2-74" style="edgeStyle=orthogonalEdgeStyle;rounded=0;orthogonalLoop=1;jettySize=auto;html=1;entryX=0.667;entryY=1;entryDx=0;entryDy=0;entryPerimeter=0;" edge="1" parent="1" source="7CXUjaQquOiZPHZPoIj2-60" target="7CXUjaQquOiZPHZPoIj2-41">
          <mxGeometry relative="1" as="geometry">
            <mxPoint x="-450" y="760" as="targetPoint" />
            <Array as="points">
              <mxPoint x="720" y="760" />
              <mxPoint x="-440" y="760" />
            </Array>
          </mxGeometry>
        </mxCell>
        <mxCell id="7CXUjaQquOiZPHZPoIj2-60" value="drugCode" style="rounded=0;whiteSpace=wrap;html=1;" vertex="1" parent="1">
          <mxGeometry x="660" y="500" width="120" height="60" as="geometry" />
        </mxCell>
        <mxCell id="7CXUjaQquOiZPHZPoIj2-61" value="" style="endArrow=none;dashed=1;html=1;dashPattern=1 3;strokeWidth=2;rounded=0;" edge="1" parent="1">
          <mxGeometry width="50" height="50" relative="1" as="geometry">
            <mxPoint x="685" y="540" as="sourcePoint" />
            <mxPoint x="755" y="540" as="targetPoint" />
          </mxGeometry>
        </mxCell>
        <mxCell id="7CXUjaQquOiZPHZPoIj2-77" style="edgeStyle=orthogonalEdgeStyle;rounded=0;orthogonalLoop=1;jettySize=auto;html=1;entryX=0.658;entryY=1.05;entryDx=0;entryDy=0;entryPerimeter=0;" edge="1" parent="1" source="7CXUjaQquOiZPHZPoIj2-62" target="7CXUjaQquOiZPHZPoIj2-12">
          <mxGeometry relative="1" as="geometry">
            <mxPoint x="1040" y="400" as="targetPoint" />
            <Array as="points">
              <mxPoint x="840" y="451" />
              <mxPoint x="851" y="451" />
              <mxPoint x="851" y="400" />
              <mxPoint x="1039" y="400" />
            </Array>
          </mxGeometry>
        </mxCell>
        <mxCell id="7CXUjaQquOiZPHZPoIj2-62" value="nurseNumber" style="rounded=0;whiteSpace=wrap;html=1;" vertex="1" parent="1">
          <mxGeometry x="780" y="500" width="120" height="60" as="geometry" />
        </mxCell>
        <mxCell id="7CXUjaQquOiZPHZPoIj2-63" value="" style="endArrow=none;dashed=1;html=1;dashPattern=1 3;strokeWidth=2;rounded=0;" edge="1" parent="1">
          <mxGeometry width="50" height="50" relative="1" as="geometry">
            <mxPoint x="805" y="540" as="sourcePoint" />
            <mxPoint x="875" y="540" as="targetPoint" />
          </mxGeometry>
        </mxCell>
        <mxCell id="7CXUjaQquOiZPHZPoIj2-64" value="&lt;font style=&quot;font-size: 18px;&quot;&gt;Patient_Drug_Nurse&lt;/font&gt;" style="text;html=1;align=center;verticalAlign=middle;resizable=0;points=[];autosize=1;strokeColor=none;fillColor=none;" vertex="1" parent="1">
          <mxGeometry x="540" y="450" width="190" height="40" as="geometry" />
        </mxCell>
        <mxCell id="7CXUjaQquOiZPHZPoIj2-65" value="dosage" style="rounded=0;whiteSpace=wrap;html=1;" vertex="1" parent="1">
          <mxGeometry x="900" y="500" width="120" height="60" as="geometry" />
        </mxCell>
        <mxCell id="7CXUjaQquOiZPHZPoIj2-78" value="" style="endArrow=none;html=1;rounded=0;entryX=0.833;entryY=0.833;entryDx=0;entryDy=0;entryPerimeter=0;" edge="1" parent="1" target="7CXUjaQquOiZPHZPoIj2-62">
          <mxGeometry width="50" height="50" relative="1" as="geometry">
            <mxPoint x="560" y="550" as="sourcePoint" />
            <mxPoint x="640" y="550" as="targetPoint" />
          </mxGeometry>
        </mxCell>
      </root>
    </mxGraphModel>
  </diagram>
</mxfile>
